<svg width="360" height="120" viewBox="0 0 360 120" fill="none" xmlns="http://www.w3.org/2000/svg">
  <defs>
    <linearGradient id="grad" x1="0" y1="0" x2="1" y2="1">
      <stop offset="0%" stop-color="#1E3A8A" />
      <stop offset="100%" stop-color="#0EA5E9" />
    </linearGradient>
  </defs>
  <rect x="10" y="10" width="140" height="100" rx="22" fill="url(#grad)" />
  <path d="M40 30C46 22 62 22 69 30L100 72C106 80 101 92 92 92H43C32 92 28 76 40 63L40 30Z" fill="#fff" opacity="0.95" />
  <path d="M90 40C97 32 113 32 120 40L140 60C147 68 142 80 133 80H94C84 80 81 65 90 54L90 40Z" fill="#22D3EE" opacity="0.95" />
  <text x="170" y="50" font-family="Inter, sans-serif" font-weight="700" font-size="24" fill="#111827">PT BPR</text>
  <text x="170" y="78" font-family="Inter, sans-serif" font-weight="700" font-size="24" fill="#111827">BANK TULUNGAGUNG</text>
  <text x="170" y="102" font-family="Inter, sans-serif" font-weight="500" font-size="14" fill="#4B5563">PERSERODA</text>
</svg>
